<svg width="200" height="205" viewBox="0 0 200 205" fill="none" xmlns="http://www.w3.org/2000/svg">
<g clip-path="url(#clip0_1347_198)">
<path d="M126.968 45.9364H73.0769C71.8488 45.9379 70.6715 46.449 69.8031 47.3576C68.9347 48.2662 68.4462 49.498 68.4447 50.7829V176.097L67.827 176.294L54.6066 180.53C53.9801 180.73 53.3033 180.662 52.7249 180.34C52.1466 180.018 51.7138 179.47 51.5217 178.814L12.197 44.421C12.0056 43.7655 12.0709 43.0573 12.3783 42.452C12.6858 41.8468 13.2104 41.394 13.8368 41.1933L34.2094 34.6666L93.2704 15.7524L113.643 9.22574C113.953 9.12591 114.279 9.09103 114.602 9.12308C114.925 9.15514 115.238 9.25351 115.525 9.41257C115.811 9.57163 116.065 9.78824 116.272 10.05C116.478 10.3118 116.633 10.6136 116.728 10.9382L126.78 45.2902L126.968 45.9364Z" fill="#F2F2F2"/>
<path d="M138.728 45.2902L126.613 3.88822C126.412 3.19838 126.082 2.55686 125.644 2.00031C125.205 1.44376 124.666 0.9831 124.057 0.64464C123.448 0.306179 122.781 0.096553 122.095 0.0277492C121.409 -0.0410545 120.716 0.032312 120.057 0.243649L91.4144 9.41646L32.3567 28.334L3.71406 37.51C2.38348 37.9375 1.26936 38.8998 0.61626 40.1859C-0.0368417 41.4719 -0.17557 42.9765 0.230533 44.3694L41.6365 185.865C41.9664 186.989 42.6321 187.973 43.5358 188.673C44.4395 189.372 45.5338 189.75 46.6579 189.751C47.1782 189.752 47.6956 189.67 48.1927 189.509L67.8272 183.222L68.4448 183.021V182.346L67.8272 182.543L48.0105 188.892C46.836 189.267 45.5675 189.139 44.4832 188.536C43.3988 187.933 42.5872 186.905 42.2264 185.677L0.823585 44.1788C0.644808 43.5704 0.5825 42.931 0.640226 42.2974C0.697951 41.6637 0.874572 41.0482 1.15998 40.4861C1.4454 39.9239 1.834 39.4262 2.30352 39.0214C2.77304 38.6167 3.31427 38.3127 3.89621 38.1271L32.5388 28.9511L91.5967 10.0368L120.239 0.860776C120.681 0.719839 121.14 0.647979 121.601 0.647529C122.592 0.649855 123.555 0.983927 124.351 1.60081C125.147 2.21769 125.733 3.08497 126.023 4.07562L138.083 45.2903L138.274 45.9365H138.917L138.728 45.2902Z" fill="#3F3D56"/>
<path d="M37.8858 41.2989C37.2905 41.2984 36.7111 41.0984 36.2325 40.7282C35.7539 40.358 35.4013 39.837 35.2264 39.2418L31.2488 25.6484C31.1419 25.2833 31.1048 24.8997 31.1396 24.5195C31.1745 24.1394 31.2805 23.7702 31.4518 23.4329C31.623 23.0957 31.8561 22.797 32.1376 22.554C32.4192 22.311 32.7438 22.1284 33.0928 22.0167L87.4254 4.61331C88.1303 4.38828 88.8916 4.46503 89.5424 4.8267C90.1933 5.18838 90.6803 5.80544 90.8968 6.54244L94.8744 20.136C95.0894 20.8734 95.0159 21.67 94.6703 22.3508C94.3246 23.0317 93.7349 23.5413 93.0306 23.7679L38.6977 41.1712C38.4346 41.2557 38.161 41.2987 37.8858 41.2989Z" fill="#6C63FF"/>
<path d="M58.7223 14.5249C62.1334 14.5249 64.8986 11.6317 64.8986 8.06286C64.8986 4.494 62.1334 1.60086 58.7223 1.60086C55.3112 1.60086 52.546 4.494 52.546 8.06286C52.546 11.6317 55.3112 14.5249 58.7223 14.5249Z" fill="#6C63FF"/>
<path d="M58.7223 12.1548C60.8823 12.1548 62.6334 10.3228 62.6334 8.06286C62.6334 5.80294 60.8823 3.97092 58.7223 3.97092C56.5623 3.97092 54.8113 5.80294 54.8113 8.06286C54.8113 10.3228 56.5623 12.1548 58.7223 12.1548Z" fill="white"/>
<path d="M186.103 188.1H81.7238C81.0279 188.099 80.3607 187.81 79.8686 187.295C79.3765 186.78 79.0997 186.082 79.0989 185.354V54.4985C79.0997 53.7704 79.3765 53.0723 79.8686 52.5574C80.3607 52.0426 81.0279 51.7529 81.7238 51.7521H186.103C186.799 51.753 187.467 52.0426 187.959 52.5575C188.451 53.0723 188.728 53.7704 188.728 54.4985V185.354C188.727 186.082 188.451 186.78 187.959 187.295C187.466 187.81 186.799 188.099 186.103 188.1Z" fill="#E6E6E6"/>
<path d="M138.083 45.2902H73.0769C71.6852 45.2922 70.351 45.8716 69.3669 46.9012C68.3828 47.9308 67.829 49.3267 67.827 50.7829V182.543L68.4447 182.346V50.7829C68.4462 49.498 68.9347 48.2662 69.8031 47.3576C70.6715 46.449 71.8488 45.9379 73.0769 45.9364H138.274L138.083 45.2902ZM194.75 45.2902H73.0769C71.6852 45.2922 70.351 45.8716 69.3669 46.9012C68.3828 47.9308 67.829 49.3267 67.827 50.7829V198.763C67.829 200.219 68.3828 201.615 69.3669 202.644C70.351 203.674 71.6852 204.253 73.0769 204.255H194.75C196.142 204.253 197.476 203.674 198.46 202.644C199.444 201.615 199.998 200.219 200 198.763V50.7829C199.998 49.3267 199.444 47.9308 198.46 46.9012C197.476 45.8716 196.142 45.2922 194.75 45.2902ZM199.382 198.763C199.381 200.048 198.892 201.279 198.024 202.188C197.156 203.096 195.978 203.608 194.75 203.609H73.0769C71.8488 203.608 70.6715 203.096 69.8031 202.188C68.9347 201.279 68.4462 200.048 68.4447 198.763V50.7829C68.4462 49.498 68.9347 48.2662 69.8031 47.3576C70.6715 46.449 71.8488 45.9379 73.0769 45.9364H194.75C195.978 45.9379 197.156 46.449 198.024 47.3576C198.892 48.2662 199.381 49.498 199.382 50.7829V198.763Z" fill="#3F3D56"/>
<path d="M162.325 59.5066H105.503C104.766 59.5057 104.059 59.199 103.538 58.6539C103.017 58.1087 102.724 57.3696 102.723 56.5987V42.3823C102.724 41.6113 103.017 40.8722 103.538 40.327C104.059 39.7819 104.766 39.4752 105.503 39.4744H162.325C163.061 39.4752 163.768 39.7819 164.289 40.327C164.81 40.8722 165.103 41.6113 165.104 42.3823V56.5987C165.103 57.3696 164.81 58.1087 164.289 58.6539C163.768 59.199 163.061 59.5057 162.325 59.5066Z" fill="#6C63FF"/>
<path d="M133.914 40.4437C137.325 40.4437 140.09 37.5505 140.09 33.9817C140.09 30.4128 137.325 27.5197 133.914 27.5197C130.502 27.5197 127.737 30.4128 127.737 33.9817C127.737 37.5505 130.502 40.4437 133.914 40.4437Z" fill="#6C63FF"/>
<path d="M133.914 37.9176C135.991 37.9176 137.675 36.1554 137.675 33.9816C137.675 31.8079 135.991 30.0457 133.914 30.0457C131.836 30.0457 130.152 31.8079 130.152 33.9816C130.152 36.1554 131.836 37.9176 133.914 37.9176Z" fill="white"/>
</g>
<defs>
<clipPath id="clip0_1347_198">
<rect width="200" height="204.255" fill="white"/>
</clipPath>
</defs>
</svg>
